<?xml version="1.0" encoding="utf-8"?>
<!-- Generator: Adobe Illustrator 21.0.0, SVG Export Plug-In . SVG Version: 6.00 Build 0)  -->
<svg version="1.1" id="Calque_1" xmlns="http://www.w3.org/2000/svg" xmlns:xlink="http://www.w3.org/1999/xlink" x="0px" y="0px"
	 viewBox="0 0 1104 372" style="enable-background:new 0 0 1104 372;" xml:space="preserve">
<style type="text/css">
	.st0{fill:#012F61;}
	.st1{fill:#3FA9F5;}
	.st2{fill:#19293F;}
	.st3{fill:#FFFFFF;}
	.st4{fill:#F9F7F7;}
</style>
<rect x="-86" class="st0" width="1308.2" height="372"/>
<g id="_x3C_Groupe_x3E_Logo_3_">
	<path class="st1" d="M158.9,332.8c-80.4,0-145.9-66.4-145.9-148c0-81.6,65.4-148,145.9-148c80.5,0,145.9,66.4,145.9,148
		C304.8,266.5,239.4,332.8,158.9,332.8z M158.9,43.3C82,43.3,19.4,106.8,19.4,184.9c0,78.1,62.6,141.6,139.5,141.6
		c76.9,0,139.5-63.5,139.5-141.6C298.5,106.8,235.9,43.3,158.9,43.3z"/>
	<path id="CERCLE1_4_" class="st1" d="M158.9,54.6C88,54.6,30.6,112.9,30.6,184.9S88,315.1,158.9,315.1
		c70.9,0,128.4-58.3,128.4-130.2S229.8,54.6,158.9,54.6z M173.9,99c-4.2,50.3,48.6,84.7,52.2,87c21.9,17.8,36.1,33.7,45.2,47
		c-4.1,9.8-9.4,19-15.7,27.3c-10.9-21.9-32.3-35.9-34.3-37.2c-53.8-43.7-47.2-71.6-47.2-71.6c-4.7,10.3-4.4,22-4.4,22
		c-2.9,38.4,37.7,64.9,40.5,66.7c15.6,12.7,26.1,24,33.2,33.8c-7.9,7.7-16.9,14.4-26.6,19.7c-7-12.7-19.6-21-20.8-21.8
		c-33.2-26.9-29.6-43.5-29.6-43.5c-2.7,6.1-2.4,13.1-2.4,13.1c-1.3,22.9,23.8,39.4,25.5,40.5c7.5,6.1,13.1,11.6,17.3,16.6
		c-14.7,6.3-30.8,9.9-47.8,9.9c-17.6,0-34.4-3.8-49.5-10.6c4.1-5.1,9.8-10.9,17.8-17.2c1.7-1,26-16.3,23.7-39.4c0,0,0.1-7-3-13.3
		c0,0,4.4,16.8-27.7,42.2c-1.2,0.7-14.6,9.2-20.7,22.6c-9.1-5.2-17.5-11.5-25-18.8c7.1-9.7,17.6-21.1,33.2-33.8
		c2.8-1.8,43.5-28.3,40.5-66.7c0,0,0.4-11.7-4.4-22c0,0,6.6,27.9-47.2,71.6c-2,1.3-23.4,15.2-34.3,37.2c-6.1-8-11.2-16.8-15.3-26.2
		c9.3-13.4,23.6-29.3,45.5-47.2c3.7-2.4,56.9-37.5,53.4-87.7c0,0,0.6-15.3-5.5-28.8c0,0,8.3,36.5-62.2,94.2
		c-2.3,1.5-24.7,16.2-39.8,39.7c-1-6.3-1.5-12.8-1.5-19.4c0-68.3,54.6-123.7,121.9-123.7c67.3,0,121.9,55.4,121.9,123.7
		c0,5.9-0.4,11.6-1.2,17.3c-14.8-23-36.7-37.3-39-38.7c-69.7-56.7-60.9-93.3-60.9-93.3C173.5,83.7,173.9,99,173.9,99z"/>
</g>
<g>
	<path class="st2" d="M696.2,264.1l30.6-66.6h7.8l30.9,66.6h-17.2l-4-8.7h-26.9l-3.9,8.7H696.2z M724.1,240.7h13.4l-6.6-14.6
		L724.1,240.7z"/>
	<path class="st2" d="M834.9,228.3v2.5c0,18.4-14.7,33.3-32.8,33.3s-32.7-14.9-32.7-33.3c0-18.4,14.6-33.3,32.7-33.3
		c9,0,17.1,3.7,23.1,9.7L813,219.5c-2.8-2.7-6.5-4.4-10.9-4.4c-8.2,0-15.5,6.7-15.5,15.8s7.4,15.8,15.5,15.8c5.2,0,10-2.6,12.7-6.6
		h-12.7v-11.7H834.9z"/>
	<path class="st2" d="M844.3,197.5h40.8V212h-23.5v10.8h20.8v14.7h-20.8v12.2h23.5v14.3h-40.8V197.5z"/>
	<path class="st2" d="M945.6,264.1l-31-31.5v31.5h-17.2v-66.6h7l31.1,31.4v-31.4h17.2v66.6H945.6z"/>
	<path class="st2" d="M1003.8,219.5c-2.7-2.8-6.6-4.3-11-4.3c-8.9,0-15.4,6.6-15.4,15.6s6.5,15.6,15.4,15.6c4.5,0,8.3-1.6,11-4.4
		l12.2,12.2c-5.9,6-14.2,9.9-23.3,9.9c-18.1,0-32.8-14.9-32.8-33.3c0-18.4,14.7-33.3,32.8-33.3c9,0,17.1,3.6,23.1,9.7L1003.8,219.5z
		"/>
	<path class="st2" d="M1063.6,239.6v24.5h-17.1v-24.5l-24-42.1h19.9l12.6,22.2l12.7-22.2h19.9L1063.6,239.6z"/>
</g>
<g>
	<path class="st1" d="M690.7,264.4l30.6-66.6h7.8l30.9,66.6h-17.2l-4-8.7h-26.9l-3.9,8.7H690.7z M718.6,241H732l-6.6-14.6L718.6,241
		z"/>
	<path class="st1" d="M829.3,228.6v2.5c0,18.4-14.7,33.3-32.8,33.3s-32.7-14.9-32.7-33.3c0-18.4,14.6-33.3,32.7-33.3
		c9,0,17.1,3.7,23.1,9.7l-12.2,12.2c-2.8-2.7-6.5-4.4-10.9-4.4c-8.2,0-15.5,6.7-15.5,15.8c0,9.1,7.4,15.8,15.5,15.8
		c5.2,0,10-2.6,12.7-6.6h-12.7v-11.7H829.3z"/>
	<path class="st1" d="M838.8,197.8h40.8v14.5H856v10.8h20.8v14.7H856v12.2h23.5v14.3h-40.8V197.8z"/>
	<path class="st1" d="M940.1,264.4l-31-31.5v31.5h-17.2v-66.6h7l31.1,31.4v-31.4h17.2v66.6H940.1z"/>
	<path class="st1" d="M998.3,219.8c-2.7-2.8-6.6-4.3-11-4.3c-8.9,0-15.4,6.6-15.4,15.6s6.5,15.6,15.4,15.6c4.5,0,8.3-1.6,11-4.4
		l12.2,12.2c-5.9,6-14.2,9.9-23.3,9.9c-18.1,0-32.8-14.9-32.8-33.3c0-18.4,14.7-33.3,32.8-33.3c9,0,17.1,3.6,23.1,9.7L998.3,219.8z"
		/>
	<path class="st1" d="M1058.1,239.9v24.5H1041v-24.5l-24-42.1h19.9l12.6,22.2l12.7-22.2h19.9L1058.1,239.9z"/>
</g>
<g>
	<g>
		<path class="st2" d="M332.1,272.6V95.2h78.3c28.4,0,52.5,24.4,52.5,52.7c0,12.1-4.5,23.2-11.4,31.9c12.1,9.7,20.1,24.6,20.1,40.7
			c0,28.1-23.9,52-52,52H332.1z M401.1,164.5c8.5,0,15.4-6.9,15.4-15.4c0-8.5-6.9-15.4-15.4-15.4h-22.5v30.7H401.1z M409.9,234.3
			c8.5,0,15.4-6.9,15.4-15.4c0-8.5-7.3-15.4-15.4-15.4h-31.2v30.7H409.9z"/>
	</g>
	<g>
		<path class="st2" d="M470.6,95.5h46.6v177.4h-46.6V95.5z"/>
	</g>
	<g>
		<path class="st2" d="M692.8,177.3v6.6c0,49-39.7,88.7-88.7,88.7c-49,0-88.5-39.7-88.5-88.7s39.5-88.7,88.5-88.7
			c24.4,0,46.4,9.9,62.4,25.8l-32.9,32.6c-7.6-7.1-17.5-11.8-29.6-11.8c-22.2,0-41.9,17.7-41.9,42.1s20.1,42.1,41.9,42.1
			c14,0,27-6.9,34.3-17.5h-34.3v-31.2H692.8z"/>
	</g>
</g>
<path id="R_4_" class="st3" d="M675.1,91.9c0.5-1.2,1.2-2.1,2.1-2.9c0.9-0.8,1.9-1.4,3.1-1.9c1.2-0.4,2.4-0.7,3.6-0.7
	c1.3,0,2.5,0.2,3.6,0.7c1.2,0.4,2.2,1.1,3.1,1.9c0.9,0.8,1.6,1.8,2.1,2.9c0.5,1.2,0.8,2.4,0.8,3.9c0,1.4-0.3,2.7-0.8,3.9
	c-0.5,1.2-1.2,2.1-2.1,3c-0.9,0.8-1.9,1.4-3.1,1.9c-1.2,0.4-2.4,0.7-3.6,0.7c-1.3,0-2.5-0.2-3.6-0.7c-1.2-0.4-2.2-1.1-3.1-1.9
	c-0.9-0.8-1.6-1.8-2.1-3c-0.5-1.2-0.8-2.4-0.8-3.9C674.3,94.4,674.6,93.1,675.1,91.9z M677.4,98.8c0.4,0.9,0.9,1.7,1.5,2.3
	c0.6,0.7,1.4,1.2,2.2,1.5c0.9,0.4,1.8,0.6,2.8,0.6c1,0,1.9-0.2,2.7-0.6c0.9-0.4,1.6-0.9,2.2-1.5c0.6-0.7,1.1-1.4,1.5-2.3
	c0.4-0.9,0.6-1.9,0.6-3c0-1.1-0.2-2-0.6-2.9c-0.4-0.9-0.9-1.7-1.5-2.3c-0.6-0.7-1.4-1.2-2.2-1.5c-0.9-0.4-1.8-0.6-2.7-0.6
	c-1,0-1.9,0.2-2.8,0.6c-0.9,0.4-1.6,0.9-2.2,1.5c-0.6,0.7-1.1,1.4-1.5,2.3c-0.4,0.9-0.6,1.9-0.6,2.9
	C676.9,96.9,677.1,97.9,677.4,98.8z M684.2,90.5c1.3,0,2.3,0.2,3,0.7c0.7,0.5,1.1,1.3,1.1,2.4c0,0.5-0.1,0.9-0.2,1.2
	c-0.1,0.3-0.3,0.6-0.6,0.8c-0.3,0.2-0.5,0.4-0.9,0.5c-0.3,0.1-0.7,0.2-1.1,0.2l2.8,4.6h-2.2l-2.6-4.5h-1.3v4.5h-2.1V90.5H684.2z
	 M684.1,94.9c0.6,0,1.1-0.1,1.5-0.3c0.4-0.2,0.6-0.6,0.6-1.2c0-0.3-0.1-0.5-0.2-0.7c-0.1-0.2-0.3-0.3-0.5-0.4
	c-0.2-0.1-0.4-0.2-0.7-0.2c-0.3,0-0.5-0.1-0.7-0.1h-1.8v2.8H684.1z"/>
<g>
	<g>
		<path class="st2" d="M770,163.5c0,9.5-3.1,16.9-9.4,22.1c-6.3,5.3-14.8,7.9-25.7,7.9c-6.9,0-13.1-1.1-18.4-3.4
			c-5.3-2.3-10.4-5.3-15.2-9l11.4-15.4c2.9,2.4,6.4,4.4,10.4,6.1c4,1.7,8.1,2.5,12.2,2.5c5,0,8.4-0.8,10.1-2.5c1.7-1.6,2.6-4,2.6-7
			c0-2.5-1-4.6-2.9-6.4c-2-1.8-4.4-3.3-7.2-4.7c-2.8-1.3-5.8-2.5-8.8-3.6s-5.6-2.2-7.7-3.4c-2.5-1.4-4.8-2.8-7-4.4
			c-2.2-1.6-4.1-3.4-5.8-5.6c-1.6-2.1-2.9-4.6-3.8-7.5c-0.9-2.8-1.4-6.3-1.4-10.3c0-5.1,1-9.5,3.1-13.2c2.1-3.7,4.8-6.7,8.1-9
			c3.3-2.3,7.2-4,11.4-5.1c4.3-1.1,8.6-1.6,13-1.6c4.8,0,9.7,0.7,14.9,2.1c5.2,1.4,9.9,3.6,14,6.6l-9.9,16.3c-2.2-1.6-5-3-8.4-4.1
			c-3.4-1.1-7-1.6-10.6-1.6c-2.6,0-4.7,0.3-6.4,1c-1.7,0.6-3.2,1.4-4.3,2.4c-1.1,1-1.9,2-2.3,3.2c-0.5,1.1-0.7,2.2-0.7,3.2
			c0,2.3,0.7,4.2,2.2,5.8c1.5,1.6,3.4,2.9,5.7,4.2s4.9,2.4,7.8,3.4c2.9,1.1,5.8,2.2,8.7,3.5c2.5,1.1,4.9,2.4,7.3,3.8
			c2.4,1.5,4.5,3.3,6.4,5.4c1.9,2.1,3.5,4.7,4.7,7.7C769.4,155.8,770,159.4,770,163.5z"/>
	</g>
</g>
<g>
	<g>
		<path class="st2" d="M798.8,110.3v81.6h-21.9v-81.6H757V91.8h61.2v18.5H798.8z"/>
	</g>
</g>
<g>
	<g>
		<path class="st2" d="M905.5,141.4c0,7.2-1.2,14-3.7,20.4c-2.5,6.4-6,11.9-10.5,16.6c-4.5,4.7-10,8.4-16.3,11.1
			c-6.4,2.7-13.4,4-21.2,4c-7.8,0-14.8-1.4-21.1-4.1c-6.3-2.7-11.7-6.5-16.2-11.2c-4.5-4.8-8-10.3-10.4-16.6
			c-2.5-6.3-3.7-13-3.7-20.2c0-7.2,1.2-13.9,3.7-20.2c2.5-6.2,6-11.6,10.5-16.2c4.5-4.6,10-8.2,16.3-10.9c6.4-2.7,13.4-4,21.2-4
			c7.8,0,14.8,1.3,21.2,3.8c6.4,2.6,11.8,6.1,16.2,10.6c4.5,4.5,7.9,9.9,10.4,16.2C904.3,127.2,905.5,134,905.5,141.4z M882.9,141.4
			c0-4.4-0.7-8.5-2.1-12.4c-1.4-3.9-3.3-7.3-5.8-10.2c-2.5-2.9-5.5-5.2-9-6.9c-3.5-1.7-7.5-2.5-11.9-2.5c-4.3,0-8.2,0.9-11.8,2.7
			c-3.6,1.8-6.6,4.2-9.2,7.1c-2.6,3-4.5,6.4-6,10.2c-1.4,3.8-2.1,7.9-2.1,12.1c0,4.6,0.8,8.9,2.3,12.9c1.6,4,3.6,7.5,6.2,10.5
			c2.6,3,5.6,5.3,9.1,7c3.5,1.7,7.2,2.5,11.1,2.5c4.5,0,8.5-0.9,12.1-2.7c3.6-1.8,6.7-4.3,9.2-7.3c2.5-3.1,4.4-6.6,5.8-10.6
			C882.2,149.7,882.9,145.6,882.9,141.4z"/>
	</g>
</g>
<g>
	<g>
		<path class="st2" d="M947.4,191.9l-27.8-47.3v47.3h-21.9V91.8h35.9c5.2,0,9.9,0.8,14.2,2.3c4.3,1.5,7.9,3.6,10.9,6.2
			c3,2.7,5.3,5.8,6.9,9.5c1.6,3.7,2.4,7.6,2.4,11.9c0,7.5-2.1,13.6-6.2,18.4c-4.2,4.8-9.5,8.1-16.1,9.9l29.3,41.8H947.4z M946,121.7
			c0-3.5-1.2-6.2-3.6-8.3c-2.4-2.1-5.4-3.1-8.8-3.1h-14v24.1h14c3.8,0,6.9-1.1,9.1-3.4C944.9,128.7,946,125.6,946,121.7z"/>
	</g>
</g>
<g>
	<g>
		<path class="st2" d="M969.4,192.4V92.3h58.3v18.5h-36.3v23.5h33.7v18.5h-33.7v21.1h38.4v18.5H969.4z"/>
		<path class="st2" d="M1084.7,161.5c0,9.5-3.1,16.9-9.4,22.1c-6.3,5.3-14.8,7.9-25.7,7.9c-6.9,0-13.1-1.1-18.4-3.4
			c-5.3-2.3-10.4-5.3-15.2-9.1l11.4-15.4c2.9,2.4,6.4,4.4,10.4,6.1c4,1.7,8.1,2.5,12.2,2.5c5,0,8.4-0.8,10.1-2.5
			c1.7-1.6,2.6-4,2.6-7c0-2.5-1-4.6-2.9-6.4c-2-1.8-4.4-3.3-7.2-4.7c-2.8-1.3-5.8-2.5-8.8-3.6c-3-1.1-5.6-2.2-7.7-3.4
			c-2.5-1.4-4.8-2.8-7-4.4c-2.2-1.6-4.1-3.4-5.8-5.6c-1.6-2.1-2.9-4.6-3.8-7.5c-0.9-2.8-1.4-6.3-1.4-10.3c0-5.1,1-9.5,3.1-13.2
			c2.1-3.7,4.8-6.7,8.1-9c3.3-2.3,7.1-4,11.4-5.1c4.3-1.1,8.6-1.6,13-1.6c4.8,0,9.7,0.7,14.9,2.1c5.2,1.4,9.9,3.6,14,6.6l-9.9,16.3
			c-2.2-1.6-5-3-8.4-4.1c-3.4-1.1-7-1.6-10.6-1.6c-2.6,0-4.7,0.3-6.4,1c-1.7,0.6-3.2,1.4-4.3,2.4c-1.1,1-1.9,2-2.3,3.2
			s-0.7,2.2-0.7,3.2c0,2.3,0.7,4.2,2.2,5.8c1.5,1.6,3.4,2.9,5.7,4.2c2.3,1.2,4.9,2.4,7.8,3.4c2.9,1.1,5.8,2.2,8.7,3.5
			c2.5,1.1,4.9,2.4,7.3,3.8c2.4,1.5,4.5,3.3,6.4,5.4c1.9,2.1,3.5,4.7,4.7,7.7C1084.1,153.8,1084.7,157.4,1084.7,161.5z"/>
	</g>
</g>
<g>
	<g>
		<path class="st4" d="M769.9,157.3c0,9.5-3.1,16.9-9.4,22.1c-6.3,5.3-14.8,7.9-25.7,7.9c-6.9,0-13.1-1.1-18.4-3.4
			c-5.3-2.3-10.4-5.3-15.2-9l11.4-15.4c2.9,2.4,6.4,4.4,10.4,6.1c4,1.7,8.1,2.5,12.2,2.5c5,0,8.4-0.8,10.1-2.5c1.7-1.6,2.6-4,2.6-7
			c0-2.5-1-4.6-2.9-6.4c-2-1.8-4.4-3.3-7.2-4.7c-2.8-1.3-5.8-2.5-8.8-3.6c-3-1.1-5.6-2.2-7.7-3.4c-2.5-1.4-4.8-2.8-7-4.4
			c-2.2-1.6-4.1-3.4-5.8-5.6c-1.6-2.1-2.9-4.6-3.8-7.5c-0.9-2.8-1.4-6.3-1.4-10.3c0-5.1,1-9.5,3.1-13.2c2.1-3.7,4.8-6.7,8.1-9
			c3.3-2.3,7.2-4,11.4-5.1c4.3-1.1,8.6-1.6,13-1.6c4.8,0,9.7,0.7,14.9,2.1c5.2,1.4,9.9,3.6,14,6.6l-9.9,16.3c-2.2-1.6-5-3-8.4-4.1
			c-3.4-1.1-7-1.6-10.6-1.6c-2.6,0-4.7,0.3-6.4,1c-1.7,0.6-3.2,1.4-4.3,2.4s-1.9,2-2.3,3.2c-0.5,1.1-0.7,2.2-0.7,3.2
			c0,2.3,0.7,4.2,2.2,5.8c1.5,1.6,3.4,2.9,5.7,4.2c2.3,1.2,4.9,2.4,7.8,3.4c2.9,1.1,5.8,2.2,8.7,3.5c2.5,1.1,4.9,2.4,7.3,3.8
			c2.4,1.5,4.5,3.3,6.4,5.4c1.9,2.1,3.5,4.7,4.7,7.7C769.3,149.7,769.9,153.2,769.9,157.3z"/>
	</g>
</g>
<g>
	<g>
		<path class="st4" d="M798.7,104.1v81.6h-21.9v-81.6h-19.9V85.6h61.2v18.5H798.7z"/>
	</g>
</g>
<g>
	<g>
		<path class="st4" d="M905.4,135.2c0,7.2-1.2,14-3.7,20.4c-2.5,6.4-6,11.9-10.5,16.6c-4.5,4.7-10,8.4-16.3,11.1
			c-6.4,2.7-13.4,4-21.2,4c-7.8,0-14.8-1.4-21.1-4.1s-11.7-6.5-16.2-11.2c-4.5-4.8-8-10.3-10.4-16.6c-2.5-6.3-3.7-13-3.7-20.2
			c0-7.2,1.2-13.9,3.7-20.2c2.5-6.2,6-11.6,10.5-16.2c4.5-4.6,10-8.2,16.3-10.9c6.4-2.7,13.4-4,21.2-4c7.8,0,14.8,1.3,21.2,3.8
			c6.4,2.6,11.8,6.1,16.2,10.6c4.5,4.5,7.9,9.9,10.4,16.2C904.2,121,905.4,127.8,905.4,135.2z M882.8,135.2c0-4.4-0.7-8.5-2.1-12.4
			c-1.4-3.9-3.3-7.3-5.8-10.2c-2.5-2.9-5.5-5.2-9-6.9c-3.5-1.7-7.5-2.5-11.9-2.5c-4.3,0-8.2,0.9-11.8,2.7s-6.6,4.2-9.2,7.1
			c-2.6,3-4.5,6.4-6,10.2c-1.4,3.8-2.1,7.9-2.1,12.1c0,4.6,0.8,8.9,2.3,12.9c1.6,4,3.6,7.5,6.2,10.5c2.6,3,5.6,5.3,9.1,7
			c3.5,1.7,7.2,2.5,11.1,2.5c4.5,0,8.5-0.9,12.1-2.7c3.6-1.8,6.7-4.3,9.2-7.3c2.5-3.1,4.4-6.6,5.8-10.6
			C882.1,143.5,882.8,139.5,882.8,135.2z"/>
	</g>
</g>
<path class="st4" d="M947.3,185.7l-27.8-47.3v47.3h-21.9V85.6h35.9c5.2,0,9.9,0.8,14.2,2.3c4.3,1.5,7.9,3.6,10.9,6.2
	c3,2.7,5.3,5.8,6.9,9.5c1.6,3.7,2.4,7.6,2.4,11.9c0,7.5-2.1,13.6-6.2,18.4c-4.2,4.8-9.5,8.1-16.1,9.9l26.6,41.8H947.3z M945.9,115.5
	c0-3.5-1.2-6.2-3.6-8.3c-2.4-2.1-5.4-3.1-8.8-3.1h-14v24.1h14c3.8,0,6.9-1.1,9.1-3.4C944.8,122.5,945.9,119.4,945.9,115.5z"/>
<path class="st4" d="M969.4,185.7V85.6h58.3v18.5h-36.3v23.4h33.7v18.5h-33.7v21.1h38.4v18.5H969.4z"/>
<path class="st4" d="M1087.3,157.1c0,9.5-3.1,16.9-9.4,22.1c-6.3,5.3-14.8,7.9-25.7,7.9c-6.9,0-13.1-1.1-18.4-3.4
	c-5.3-2.3-10.4-5.3-15.2-9l11.4-15.4c2.9,2.4,6.4,4.4,10.4,6.1c4,1.7,8.1,2.5,12.2,2.5c5,0,8.4-0.8,10.1-2.5c1.7-1.6,2.6-4,2.6-7
	c0-2.5-1-4.6-2.9-6.4c-2-1.8-4.4-3.3-7.2-4.7c-2.8-1.3-5.8-2.5-8.8-3.6s-5.6-2.2-7.7-3.4c-2.5-1.4-4.8-2.8-7-4.4
	c-2.2-1.6-4.1-3.4-5.8-5.6c-1.6-2.1-2.9-4.6-3.8-7.5c-0.9-2.8-1.4-6.3-1.4-10.3c0-5.1,1-9.5,3.1-13.2c2.1-3.7,4.8-6.7,8.1-9
	c3.3-2.3,7.2-4,11.5-5.1c4.3-1.1,8.6-1.6,13-1.6c4.8,0,9.7,0.7,14.9,2.1c5.2,1.4,9.9,3.6,14,6.6l-9.9,16.3c-2.2-1.6-5-3-8.4-4.1
	c-3.4-1.1-7-1.6-10.6-1.6c-2.6,0-4.7,0.3-6.4,1c-1.7,0.6-3.2,1.4-4.3,2.4c-1.1,1-1.9,2-2.3,3.2c-0.5,1.1-0.7,2.2-0.7,3.2
	c0,2.3,0.7,4.2,2.2,5.8c1.5,1.6,3.4,2.9,5.7,4.2c2.3,1.2,4.9,2.4,7.8,3.4c2.9,1.1,5.8,2.2,8.7,3.5c2.5,1.1,4.9,2.4,7.3,3.8
	c2.4,1.5,4.5,3.3,6.4,5.4c1.9,2.2,3.5,4.7,4.7,7.7C1086.7,149.5,1087.3,153,1087.3,157.1z"/>
<g>
	<path class="st3" d="M332.1,264.6V87.2h78.3c28.4,0,52.5,24.4,52.5,52.7c0,12.1-4.5,23.2-11.4,31.9c12.1,9.7,20.1,24.6,20.1,40.7
		c0,28.1-23.9,52-52,52H332.1z M401.1,156.5c8.5,0,15.4-6.9,15.4-15.4s-6.9-15.4-15.4-15.4h-22.5v30.7H401.1z M409.9,226.3
		c8.5,0,15.4-6.9,15.4-15.4s-7.3-15.4-15.4-15.4h-31.2v30.7H409.9z"/>
</g>
<g>
	<path class="st3" d="M470.6,87.4h46.6v177.4h-46.6V87.4z"/>
</g>
<g>
	<path class="st3" d="M692.8,169.3v6.6c0,49-39.7,88.7-88.7,88.7s-88.5-39.7-88.5-88.7c0-49,39.5-88.7,88.5-88.7
		c24.4,0,46.4,9.9,62.4,25.8l-32.9,32.6c-7.6-7.1-17.5-11.8-29.6-11.8c-22.2,0-41.9,17.7-41.9,42.1c0,24.4,20.1,42.1,41.9,42.1
		c14,0,27-6.9,34.3-17.5h-34.3v-31.2H692.8z"/>
</g>
<g>
	<path class="st3" d="M715.8,292.5v22.6h-6.1v-22.6h-5.5v-5.1h16.9v5.1H715.8z"/>
	<path class="st3" d="M752.6,301.1c0,2-0.3,3.9-1,5.6s-1.7,3.3-2.9,4.6s-2.8,2.3-4.5,3.1s-3.7,1.1-5.9,1.1c-2.2,0-4.1-0.4-5.9-1.1
		c-1.7-0.8-3.2-1.8-4.5-3.1s-2.2-2.9-2.9-4.6s-1-3.6-1-5.6c0-2,0.3-3.9,1-5.6s1.7-3.2,2.9-4.5s2.8-2.3,4.5-3
		c1.8-0.7,3.7-1.1,5.9-1.1s4.1,0.4,5.9,1.1s3.3,1.7,4.5,2.9c1.2,1.3,2.2,2.8,2.9,4.5S752.6,299.1,752.6,301.1z M746.3,301.1
		c0-1.2-0.2-2.4-0.6-3.4c-0.4-1.1-0.9-2-1.6-2.8s-1.5-1.5-2.5-1.9c-1-0.5-2.1-0.7-3.3-0.7c-1.2,0-2.3,0.2-3.3,0.7
		c-1,0.5-1.8,1.2-2.5,2c-0.7,0.8-1.3,1.8-1.7,2.8c-0.4,1.1-0.6,2.2-0.6,3.3c0,1.3,0.2,2.5,0.6,3.6c0.4,1.1,1,2.1,1.7,2.9
		s1.6,1.5,2.5,1.9s2,0.7,3.1,0.7c1.2,0,2.4-0.3,3.4-0.8c1-0.5,1.8-1.2,2.5-2c0.7-0.8,1.2-1.8,1.6-2.9
		C746.2,303.4,746.3,302.3,746.3,301.1z"/>
	<path class="st3" d="M779.8,308.9c-0.7,1.5-1.5,2.7-2.7,3.7c-1.1,1-2.4,1.7-3.9,2.2c-1.5,0.5-3,0.8-4.6,0.8c-1.6,0-3.1-0.3-4.5-0.8
		c-1.4-0.5-2.7-1.3-3.8-2.2c-1.1-1-2-2.2-2.6-3.7s-1-3.1-1-5v-16.5h6.1v16.5c0,0.9,0.1,1.8,0.4,2.6s0.7,1.5,1.2,2.1
		c0.5,0.6,1.1,1,1.8,1.3c0.7,0.3,1.5,0.5,2.3,0.5c0.9,0,1.7-0.2,2.4-0.5c0.7-0.3,1.4-0.8,1.9-1.3c0.6-0.6,1-1.3,1.3-2.1
		c0.3-0.8,0.5-1.7,0.5-2.6v-16.5h6v16.5C780.8,305.7,780.5,307.4,779.8,308.9z"/>
	<path class="st3" d="M800.1,315.1l-7.7-13.1v13.1h-6.1v-27.7h10c1.4,0,2.8,0.2,3.9,0.6c1.2,0.4,2.2,1,3,1.7
		c0.8,0.7,1.5,1.6,1.9,2.6c0.4,1,0.7,2.1,0.7,3.3c0,2.1-0.6,3.8-1.7,5.1c-1.2,1.3-2.6,2.2-4.5,2.8l7.4,11.6H800.1z M799.7,295.6
		c0-1-0.3-1.7-1-2.3c-0.7-0.6-1.5-0.9-2.5-0.9h-3.9v6.7h3.9c1.1,0,1.9-0.3,2.5-1C799.4,297.6,799.7,296.7,799.7,295.6z"/>
	<path class="st3" d="M811,315.1v-27.7h6.1v27.7H811z"/>
	<path class="st3" d="M840.4,307.2c0,2.6-0.9,4.7-2.6,6.1c-1.7,1.5-4.1,2.2-7.1,2.2c-1.9,0-3.6-0.3-5.1-1c-1.5-0.6-2.9-1.5-4.2-2.5
		l3.2-4.3c0.8,0.7,1.8,1.2,2.9,1.7c1.1,0.5,2.2,0.7,3.4,0.7c1.4,0,2.3-0.2,2.8-0.7s0.7-1.1,0.7-1.9c0-0.7-0.3-1.3-0.8-1.8
		s-1.2-0.9-2-1.3c-0.8-0.4-1.6-0.7-2.4-1c-0.8-0.3-1.5-0.6-2.1-1c-0.7-0.4-1.3-0.8-1.9-1.2s-1.1-0.9-1.6-1.5
		c-0.5-0.6-0.8-1.3-1.1-2.1c-0.3-0.8-0.4-1.7-0.4-2.9c0-1.4,0.3-2.6,0.9-3.6c0.6-1,1.3-1.8,2.2-2.5c0.9-0.6,2-1.1,3.2-1.4
		c1.2-0.3,2.4-0.5,3.6-0.5c1.3,0,2.7,0.2,4.1,0.6c1.4,0.4,2.7,1,3.9,1.8l-2.7,4.5c-0.6-0.5-1.4-0.8-2.3-1.1c-1-0.3-1.9-0.5-2.9-0.5
		c-0.7,0-1.3,0.1-1.8,0.3c-0.5,0.2-0.9,0.4-1.2,0.7c-0.3,0.3-0.5,0.6-0.6,0.9c-0.1,0.3-0.2,0.6-0.2,0.9c0,0.6,0.2,1.2,0.6,1.6
		c0.4,0.4,0.9,0.8,1.6,1.2c0.6,0.3,1.4,0.7,2.2,0.9c0.8,0.3,1.6,0.6,2.4,1c0.7,0.3,1.4,0.7,2,1.1c0.7,0.4,1.3,0.9,1.8,1.5
		c0.5,0.6,1,1.3,1.3,2.1C840.3,305.1,840.4,306.1,840.4,307.2z"/>
	<path class="st3" d="M867,315.1v-16c0-0.3,0-0.5,0-0.7c0-0.2,0-0.4,0-0.6c0-0.2,0.1-0.4,0.1-0.6c-0.1,0.1-0.1,0.3-0.2,0.4
		c-0.1,0.1-0.1,0.2-0.2,0.4c-0.1,0.1-0.1,0.2-0.2,0.4l-6.2,11.4h-2.3l-6.3-11.4c-0.1-0.2-0.2-0.4-0.3-0.7c-0.1-0.1-0.1-0.3-0.2-0.4
		c0,0.2,0,0.4,0,0.6c0,0.2,0,0.4,0.1,0.6c0,0.2,0,0.5,0,0.7v16h-6.1v-27.7h6l7.5,13.5c0.1,0.1,0.1,0.3,0.2,0.4
		c0.1,0.2,0.1,0.3,0.2,0.4c0,0.2,0.1,0.3,0.2,0.4c0.1-0.1,0.1-0.3,0.2-0.4c0.1-0.1,0.1-0.3,0.2-0.4c0.1-0.2,0.1-0.3,0.2-0.4
		l7.1-13.5h6.2v27.7H867z"/>
	<path class="st3" d="M903.3,315.1l-1.3-1.6c-1,0.6-2.1,1.1-3.3,1.5s-2.4,0.6-3.7,0.6c-1.2,0-2.4-0.2-3.6-0.6s-2.2-1-3.1-1.7
		c-0.9-0.7-1.6-1.6-2.2-2.6c-0.6-1-0.8-2.2-0.8-3.4c0-0.9,0.2-1.8,0.5-2.5c0.3-0.8,0.7-1.5,1.2-2.1c0.5-0.6,1.1-1.2,1.7-1.7
		s1.3-1,2-1.5c-0.4-0.5-0.8-0.9-1.1-1.4s-0.6-0.9-0.9-1.3c-0.3-0.5-0.5-0.9-0.6-1.5c-0.2-0.5-0.2-1.1-0.2-1.8c0-1,0.2-1.8,0.6-2.6
		s1-1.5,1.7-2.1c0.7-0.6,1.5-1,2.4-1.3c0.9-0.3,1.8-0.5,2.8-0.5c1,0,1.9,0.2,2.8,0.5c0.9,0.3,1.7,0.8,2.4,1.3
		c0.7,0.6,1.3,1.3,1.7,2.1s0.6,1.7,0.6,2.7c0,0.8-0.1,1.5-0.4,2.1c-0.3,0.6-0.6,1.2-1.1,1.7c-0.5,0.5-1,1-1.6,1.5
		c-0.6,0.4-1.2,0.9-1.9,1.3l5.1,6.4c0.6-0.6,1.1-1.2,1.6-1.7c0.5-0.6,1-1.1,1.4-1.6l3.3,3.8c-0.4,0.5-0.9,1.1-1.5,1.7
		s-1.1,1.2-1.8,1.8l3.8,4.7H903.3z M893.5,302.9c-0.7,0.6-1.2,1.2-1.7,1.8c-0.4,0.6-0.7,1.4-0.7,2.2c0,0.6,0.1,1.2,0.4,1.6
		s0.6,0.9,1.1,1.2c0.4,0.3,0.9,0.6,1.5,0.8c0.5,0.2,1.1,0.3,1.7,0.3c0.5,0,1.1-0.1,1.6-0.3c0.5-0.2,1.1-0.4,1.6-0.8L893.5,302.9z
		 M897.7,293.3c0-0.7-0.2-1.2-0.7-1.6c-0.5-0.4-1-0.6-1.7-0.6c-0.6,0-1.1,0.2-1.5,0.7c-0.4,0.5-0.7,1-0.7,1.6c0,0.5,0.2,1,0.6,1.5
		c0.4,0.6,0.8,1.1,1.3,1.7c0.8-0.5,1.4-1,1.9-1.5C897.4,294.5,897.7,293.9,897.7,293.3z"/>
	<path class="st3" d="M944.9,301.2c0,2.3-0.4,4.3-1.2,6s-1.9,3.2-3.2,4.4c-1.3,1.2-2.9,2-4.6,2.6c-1.7,0.6-3.5,0.9-5.4,0.9h-8.4
		v-27.7h8.4c2,0,3.8,0.3,5.6,0.9c1.7,0.6,3.3,1.5,4.6,2.7c1.3,1.2,2.4,2.6,3.1,4.4S944.9,299,944.9,301.2z M938.6,301.2
		c0-1.2-0.2-2.4-0.6-3.4c-0.4-1.1-1-2-1.7-2.8c-0.7-0.8-1.6-1.4-2.6-1.8c-1-0.5-2.1-0.7-3.3-0.7h-2.3V310h2.3c1.3,0,2.4-0.2,3.5-0.7
		c1-0.5,1.9-1.1,2.6-1.9c0.7-0.8,1.2-1.7,1.6-2.8C938.4,303.5,938.6,302.4,938.6,301.2z"/>
	<path class="st3" d="M949.3,315.1v-27.7h6.1v27.7H949.3z"/>
	<path class="st3" d="M986.4,307.2c-0.7,1.8-1.7,3.3-2.9,4.5c-1.2,1.2-2.6,2.2-4.3,2.8c-1.6,0.6-3.4,1-5.3,1c-2.1,0-4-0.3-5.7-1
		c-1.7-0.7-3.2-1.7-4.5-3c-1.2-1.3-2.2-2.8-2.9-4.6c-0.7-1.8-1.1-3.7-1.1-5.9c0-2.2,0.4-4.1,1.1-5.9c0.7-1.7,1.7-3.2,3-4.5
		c1.3-1.2,2.8-2.2,4.5-2.9c1.7-0.7,3.5-1,5.5-1c2.5,0,4.6,0.4,6.3,1.3c1.7,0.8,3.2,1.9,4.4,3.2l-3.8,3.7c-0.9-0.9-1.9-1.7-3.1-2.1
		c-1.2-0.5-2.5-0.7-3.9-0.7c-1.2,0-2.2,0.2-3.2,0.7c-1,0.5-1.8,1.1-2.6,1.9s-1.3,1.8-1.7,2.8c-0.4,1.1-0.6,2.2-0.6,3.4
		c0,1.2,0.2,2.4,0.6,3.5c0.4,1.1,1,2.1,1.7,2.9s1.6,1.5,2.6,2c1,0.5,2.1,0.7,3.3,0.7c1.7,0,3.1-0.3,4.3-1c1.2-0.7,2-1.7,2.6-3h-7.1
		v-5.1h13.8C987.5,303.4,987.1,305.4,986.4,307.2z"/>
	<path class="st3" d="M991.6,315.1v-27.7h6.1v27.7H991.6z"/>
	<path class="st3" d="M1013.5,292.5v22.6h-6.1v-22.6h-5.5v-5.1h16.9v5.1H1013.5z"/>
	<path class="st3" d="M1039.9,315.1l-2.1-7h-8.4l-2.2,7h-6.4l9.9-27.7h5.9l10.1,27.7H1039.9z M1034.2,296.2
		c-0.2-0.6-0.3-1.1-0.4-1.5c-0.1-0.3-0.1-0.5-0.2-0.8c-0.1,0.2-0.1,0.5-0.2,0.7c-0.1,0.2-0.1,0.4-0.2,0.7c-0.1,0.3-0.1,0.5-0.2,0.8
		l-2.1,6.8h5.3L1034.2,296.2z"/>
	<path class="st3" d="M1050,315.1v-27.7h6.1V310h9.9v5.1H1050z"/>
</g>
<g>
</g>
<g>
</g>
<g>
</g>
<g>
</g>
<g>
</g>
<g>
</g>
<g>
</g>
<g>
</g>
<g>
</g>
<g>
</g>
<g>
</g>
<g>
</g>
<g>
</g>
<g>
</g>
<g>
</g>
</svg>
